<?xml version="1.0" encoding="utf-8"?>
<!-- Generator: Adobe Illustrator 25.0.0, SVG Export Plug-In . SVG Version: 6.00 Build 0)  -->
<svg version="1.1" id="Layer_1" xmlns="http://www.w3.org/2000/svg" xmlns:xlink="http://www.w3.org/1999/xlink" x="0px" y="0px"
	 width="79px" height="122.4px" viewBox="0 0 79 122.4" style="enable-background:new 0 0 79 122.4;" xml:space="preserve">
<style type="text/css">
	.st0{clip-path:url(#SVGID_2_);fill:#16402D;}
	.st1{clip-path:url(#SVGID_4_);fill:#16402D;}
	.st2{clip-path:url(#SVGID_6_);fill:#16402D;}
	.st3{clip-path:url(#SVGID_8_);fill:#16402D;}
	.st4{clip-path:url(#SVGID_10_);fill:#16402D;}
</style>
<g>
	<g>
		<defs>
			<rect id="SVGID_1_" width="79" height="122.4"/>
		</defs>
		<clipPath id="SVGID_2_">
			<use xlink:href="#SVGID_1_"  style="overflow:visible;"/>
		</clipPath>
		<path class="st0" d="M18.9,103.4c-0.1,2.1-0.1,4.1-0.1,6.2v7.7v0.7c0,2.2,0.1,3,2.5,3v0.9c-1.2-0.1-2.5-0.1-3.7-0.1
			s-2.5,0-3.7,0.1v-0.7c2.4-0.3,2.7-0.4,2.7-3v-0.9v-11.8c-0.7,0.3-1.6,0.7-2.4,1l-0.4-0.9c1.6-0.7,3.1-1.6,4.6-2.7L18.9,103.4z"/>
	</g>
	<g>
		<defs>
			<rect id="SVGID_3_" width="79" height="122.4"/>
		</defs>
		<clipPath id="SVGID_4_">
			<use xlink:href="#SVGID_3_"  style="overflow:visible;"/>
		</clipPath>
		<path class="st1" d="M36.8,117.4c0,3-2.5,4.9-5.3,4.9c-2.7,0-5.2-1.6-5.2-4.6c0-2.4,1.9-3.8,3.8-4.9c-1.8-1.2-3.2-2.4-3.2-4.7
			c0-2.7,2.1-4.6,4.7-4.6c2.5,0,4.7,1.3,4.7,4.1c0,2.2-1.3,3.5-3.2,4.6C34.8,113.3,36.8,114.9,36.8,117.4 M34.3,108.1
			c0-1.9-1-3.7-3.1-3.7c-1.5,0-2.7,1-2.7,2.5c0,2.2,2.2,3.4,3.8,4.4C33.4,110.7,34.3,109.6,34.3,108.1 M28.5,117.2
			c0,1.9,1.3,4,3.4,4c1.6,0,3-1.2,3-3c0-2.4-2.1-3.8-3.8-5C29.5,114.1,28.5,115.6,28.5,117.2"/>
	</g>
	<g>
		<defs>
			<rect id="SVGID_5_" width="79" height="122.4"/>
		</defs>
		<clipPath id="SVGID_6_">
			<use xlink:href="#SVGID_5_"  style="overflow:visible;"/>
		</clipPath>
		<path class="st2" d="M41.5,121.5c3.7-2.1,6.1-4.9,6.9-9.2c-0.9,1-2.2,1.9-3.7,1.9c-2.7,0-4.6-2.5-4.6-5c0-3.2,2.1-5.9,5.5-5.9
			c3.5,0,5.2,3.4,5.2,6.5c0,5.6-4.3,10-9,12.6L41.5,121.5z M48.7,110c0-2.1-0.6-5.5-3.4-5.5c-2.1,0-2.8,1.9-2.8,3.7
			c0,1.9,1,4.4,3.2,4.4c1.2,0,2.1-0.7,2.8-1.5C48.6,110.7,48.7,110.5,48.7,110"/>
	</g>
	<g>
		<defs>
			<rect id="SVGID_7_" width="79" height="122.4"/>
		</defs>
		<clipPath id="SVGID_8_">
			<use xlink:href="#SVGID_7_"  style="overflow:visible;"/>
		</clipPath>
		<path class="st3" d="M64.1,103.5c-4,2.2-6.1,5.3-6.9,9.7c1-1,2.2-1.9,3.7-1.9c2.8,0,4.4,2.7,4.4,5.2c0,3.1-2.4,5.6-5.5,5.6
			c-3.7,0-5.2-3.4-5.2-6.6c0-5.5,4.3-10.5,9.2-12.7L64.1,103.5z M56.9,115.6c0,2.1,0.4,5.3,3.1,5.5c2.1,0,3.1-1.8,3.1-3.7
			s-1-4.6-3.4-4.6c-1.2,0-2.1,0.7-2.8,1.6C56.9,114.7,56.9,115.2,56.9,115.6"/>
	</g>
	<g>
		<defs>
			<rect id="SVGID_9_" width="79" height="122.4"/>
		</defs>
		<clipPath id="SVGID_10_">
			<use xlink:href="#SVGID_9_"  style="overflow:visible;"/>
		</clipPath>
		<path class="st4" d="M47,17.3L47,17.3l-1.3-4.4 M44.3,8.7L41.6,0l-6.3,16.8l0,0c-2.5,6.6-5.2,13.4-7.5,20.1l-1,2.7
			c-0.3,0-0.4,0-0.7,0c-13,0-21.1,7.8-21.1,21c0,6.9,3.2,12.3,8.1,15.5c-2.4,5.6-5.2,10.8-7.5,11.8c-1.8,0.7-3.7,0.7-5.5,0.9V93
			c4-0.3,8.1-0.6,12.1-0.6c4.3,0,8.6,0.3,12.8,0.6v-4.1c-2.5-0.3-7.7-0.3-7.7-4c0-2.1,0.4-4.1,1.2-6.3c2.1,0.6,4.3,0.9,6.6,0.9
			c4.4,0,8.9-1,13.1-2.5c-0.4-1.5-0.6-3.1-0.6-4.7v-3.4c0.1-2.2,0.3-2.7,1.5-2.7c2.4,7.7,9.2,12.3,17.7,13c0.6,1.9,1.2,3.8,1.2,5.8
			c0,3.7-5,3.5-7.7,3.8V93c4.7-0.3,9.3-0.6,14-0.6S74,92.7,78.7,93v-4.1c-4.4-0.7-7.7-1.3-9.9-5.8c-0.7-1.6-1.5-3.2-2.1-4.9
			c1.9-0.6,3.7-1.2,5.5-1.9l1.3-8.9l-2.1-0.1c-1,4.1-2.8,6.9-5.8,8.4c-1.2-3.2-2.2-6.6-3.2-9.9l-7.7-23.2c1.3-0.4,3-0.6,4.4-0.6
			c6.2,0,10.3,2.7,11.8,8.9l1.9-0.3l-0.6-8.6c-4.3-1.3-8.7-2.7-13.1-2.7c-1.6,0-3.2,0.1-4.9,0.4 M47.1,48.3l1.9,6.1h-4.6
			C44.9,52.1,45.8,50.1,47.1,48.3 M18.6,61.4c-0.7,2.1-2.2,6.2-4,10.8c-2.8-3-4.3-6.9-4.3-11.5c0-9.6,4.9-18.6,15.5-18.8L18.6,61.4z
			 M34.3,64.4c-2.5,0-5-0.1-7.5-0.4V66h1.3c5,0.3,5-0.4,5,4v1.3c0,4.9-3,5.6-7.4,5.6c-2.2,0-4.3-0.4-6.1-1.2c0.4-1,0.7-2.2,1.2-3.2
			l4.4-12.4h13.1c0,1.5,0.1,2.8,0.4,4C37.2,64.4,35.7,64.4,34.3,64.4 M39,54.3H27.5L31.6,43c3,1.2,5,3.7,5.9,7.5l1.8-0.3l-0.9-8.4
			c-1.9-0.6-3.8-1-5.8-1.5L39,22.9l6.8,21C42.4,46.5,40,50.1,39,54.3 M43.9,60.1h6.9L56,76.3C48.6,74.6,44.3,68.2,43.9,60.1"/>
	</g>
</g>
</svg>
